<svg xmlns="http://www.w3.org/2000/svg" width="57" height="17" fill="none">
    <path
        d="M14.838 0H2.368a.913.913 0 0 0-.918.91v13.744c0 .526.435.91.918.91h12.47a.913.913 0 0 0 .918-.91V.91a.913.913 0 0 0-.918-.91zm-.774 4.023H5.316v6.752c0 .287.097.479.242.67.145.192.387.24.677.24h7.878v2.154H6.186a4.3 4.3 0 0 1-1.015-.143c-.338-.096-.676-.287-1.015-.527-.338-.24-.58-.575-.773-.958-.193-.383-.29-.862-.29-1.436V2.92c0-.144.049-.287.097-.43.097-.097.145-.24.242-.336.096-.096.241-.192.386-.24.145-.047.29-.095.435-.095h9.811v2.203zm-.966 2.681v2.203H6.186V6.704h6.912z"
        fill="#fff" />
    <path
        d="M2.368 15.611a.913.913 0 0 1-.918-.91V1.437H.967c-.532 0-.967.383-.967.91V16.09c0 .527.435.91.918.91h12.47a.913.913 0 0 0 .918-.91v-.479H2.368z"
        fill="#DEE0E0" />
    <path
        d="M29.772 10.2c0 .431-.049.814-.145 1.15a3.164 3.164 0 0 1-.435.91c-.194.239-.387.478-.629.67a2.886 2.886 0 0 1-.724.43 4.785 4.785 0 0 1-.774.24c-.29.048-.532.096-.773.096h-8.458v-2.155h8.41c.434 0 .724-.144.966-.383.242-.24.338-.575.338-1.006 0-.191-.048-.383-.096-.526-.049-.144-.145-.288-.242-.431a.704.704 0 0 0-.435-.288c-.193-.048-.338-.095-.531-.095h-4.979a3.66 3.66 0 0 1-1.16-.192 3.892 3.892 0 0 1-1.16-.623 3.404 3.404 0 0 1-.87-1.101c-.241-.431-.338-1.006-.338-1.628 0-.623.097-1.197.339-1.628.241-.431.531-.814.87-1.102.338-.287.724-.479 1.16-.622a3.46 3.46 0 0 1 1.16-.192h7.442V3.88h-7.442c-.435 0-.725.144-.967.383-.242.24-.338.575-.338 1.006 0 .43.096.766.338 1.005.242.24.532.384.966.384h5.027c.241 0 .483.047.725.095s.532.144.773.288c.242.143.532.287.725.479.242.191.435.43.628.67.194.24.339.575.435.91.145.287.194.67.194 1.101zm13.194-4.453c0 .479-.048.957-.193 1.34-.145.384-.29.719-.484 1.006a3.613 3.613 0 0 1-.725.766c-.29.24-.58.383-.87.527-.29.144-.58.24-.918.287-.29.048-.58.096-.87.096h-.87v3.927h-2.223V9.769h-.87c-.29 0-.532-.048-.87-.096a3.392 3.392 0 0 1-.918-.287c-.29-.144-.58-.287-.87-.527-.29-.191-.532-.478-.725-.766-.193-.287-.387-.622-.483-1.053a5.297 5.297 0 0 1-.145-1.293V1.772h2.174v3.975c0 .287.049.526.145.766.097.24.194.43.387.575.194.143.339.287.58.383.242.095.483.143.773.143h3.964c.193-.048.434-.095.628-.143.242-.048.435-.144.58-.288.193-.143.338-.287.435-.526a2.32 2.32 0 0 0 .193-.91V1.772h2.175v3.975zM56.499 10.2c0 .431-.049.814-.145 1.15a3.164 3.164 0 0 1-.435.91c-.194.239-.387.478-.629.67a2.887 2.887 0 0 1-.725.43 4.779 4.779 0 0 1-.773.24c-.29.048-.532.096-.773.096H44.56v-2.155h8.41c.435 0 .725-.144.966-.383.242-.24.338-.575.338-1.006 0-.191-.048-.383-.096-.526a1.938 1.938 0 0 0-.242-.431.704.704 0 0 0-.435-.288c-.193-.048-.338-.095-.532-.095h-5.026a3.66 3.66 0 0 1-1.16-.192 3.894 3.894 0 0 1-1.16-.623 3.403 3.403 0 0 1-.87-1.101c-.241-.431-.338-1.006-.338-1.628 0-.623.097-1.197.338-1.628.242-.431.532-.814.87-1.102.338-.287.725-.479 1.16-.622a3.46 3.46 0 0 1 1.16-.192h7.443V3.88h-7.443c-.435 0-.725.144-.967.383-.241.24-.338.575-.338 1.006 0 .43.097.766.338 1.005.242.24.532.384.967.384h5.026c.242 0 .484.047.726.095.241.048.531.144.773.288.241.143.531.287.725.479.241.191.435.43.628.67.193.24.338.575.435.91.193.287.242.67.242 1.101z"
        fill="#fff" />
</svg>